Coordinates
version=1
nRows=26
nColumns=24
inDegrees=yes

Units are S.I. units (second, meters, Newtons, ...)
Angles are in degrees.

endheader
time	pelvis_tilt	pelvis_list	pelvis_rotation	pelvis_tx	pelvis_ty	pelvis_tz	hip_flexion_r	hip_adduction_r	hip_rotation_r	knee_angle_r	ankle_angle_r	subtalar_angle_r	mtp_angle_r	hip_flexion_l	hip_adduction_l	hip_rotation_l	knee_angle_l	ankle_angle_l	subtalar_angle_l	mtp_angle_l	lumbar_extension	lumbar_bending	lumbar_rotation
      6.40000000	     -8.61782557	     -1.84083570	      9.72100544	     -1.16538867	     -0.02652394	     -0.29334644	     31.95709062	     -3.72744260	     -7.61991730	     -8.22035489	     -1.38733287	      9.45738356	     13.63224823	     -6.92508650	     -1.21473183	     18.76682896	    -15.98496338	      5.57071856	      0.58839326	     12.89292254	      4.90604851	     -0.07668614	     -9.27658053
      6.40500000	     -8.72642871	     -1.97810852	      9.79800491	     -1.15846293	     -0.02734177	     -0.29253624	     32.05488936	     -3.57765115	     -7.83102898	     -8.80955345	     -1.97708034	      9.42319939	     14.44081688	     -6.89009161	     -1.46469868	     18.49101685	    -16.54099803	      5.22278516	      1.25672332	     13.56627120	      5.22124050	      0.00954562	     -9.31018738
      6.41000000	     -8.81711495	     -2.11556372	      9.77788953	     -1.15142530	     -0.02807463	     -0.29167390	     32.12484915	     -3.36867732	     -7.83813666	     -9.33031093	     -2.96189400	      9.17513699	     15.96021362	     -6.92004359	     -1.70638107	     18.19982612	    -16.99933542	      4.52462592	      1.58757214	     14.67245188	      5.53692373	      0.12850740	     -9.27173084
      6.41500000	     -8.90879422	     -2.31090514	      9.77179404	     -1.14449475	     -0.02878141	     -0.29078506	     32.24909853	     -3.10844941	     -7.85050764	     -9.96506370	     -3.75345339	      8.98474045	     16.74771440	     -6.87081971	     -2.00618489	     17.87930432	    -17.59567785	      4.05421043	      2.17931535	     15.40461610	      5.84131893	      0.30271275	     -9.22902675
      6.42000000	     -9.00064908	     -2.56044858	      9.81777832	     -1.13760343	     -0.02936943	     -0.28992208	     32.38583929	     -2.81638834	     -7.85364098	    -10.64153188	     -4.44023855	      8.79783840	     17.03946708	     -6.75563532	     -2.36995403	     17.56965820	    -18.27664447	      3.62709624	      2.93830260	     15.94077768	      6.15127837	      0.52078313	     -9.26912932
      6.42500000	     -9.11657521	     -2.83805617	      9.74417002	     -1.13067709	     -0.02991520	     -0.28890684	     32.58216115	     -2.41933357	     -7.59520667	    -11.33831245	     -5.24489353	      8.44787786	     17.41567110	     -6.60395004	     -2.75869544	     17.05920598	    -18.95701060	      3.03260711	      3.67012563	     16.77948922	      6.49787966	      0.78313032	     -9.19083087
      6.43000000	     -9.22108936	     -3.16411304	      9.66655399	     -1.12376338	     -0.03033127	     -0.28788747	     32.78007233	     -1.95939023	     -7.24282327	    -12.05911149	     -6.02346256	      8.05414876	     17.69455422	     -6.42870191	     -3.20475589	     16.53173827	    -19.65981449	      2.31305980	      4.39767018	     17.75006460	      6.83794843	      1.10263942	     -9.11039124
      6.43500000	     -9.31117308	     -3.52452372	      9.55794652	     -1.11690489	     -0.03066644	     -0.28683814	     32.99662321	     -1.43271584	     -6.77657224	    -12.84499345	     -6.69793473	      7.62278541	     17.78826201	     -6.21768202	     -3.68625101	     15.94677265	    -20.43620378	      1.53377311	      5.15164552	     18.77098232	      7.15618478	      1.46912398	     -9.00658827
      6.44000000	     -9.39541596	     -3.91646334	      9.42138116	     -1.11006531	     -0.03090203	     -0.28574407	     33.23931161	     -0.84210824	     -6.20137492	    -13.70389549	     -7.29365018	      7.14088495	     17.66538931	     -5.97764877	     -4.21253216	     15.28165483	    -21.24714224	      0.68326728	      5.98299228	     19.84363404	      7.46681371	      1.87677310	     -8.89194354
      6.44500000	     -9.46811521	     -4.32425288	      9.25824628	     -1.10321945	     -0.03103988	     -0.28461064	     33.48021561	     -0.19787068	     -5.52627616	    -14.60245490	     -7.78703097	      6.59164150	     17.31473325	     -5.71474490	     -4.76754848	     14.55004190	    -22.09817979	     -0.28586481	      6.86594657	     21.01413099	      7.76644855	      2.30651162	     -8.76279283
      6.45000000	     -9.52059171	     -4.73815721	      9.08362478	     -1.09636410	     -0.03108306	     -0.28344957	     33.70264658	      0.48365241	     -4.78423362	    -15.53472586	     -8.15000705	      5.99299217	     16.72319034	     -5.43874856	     -5.34614645	     13.76253856	    -22.98476238	     -1.39633480	      7.77335739	     22.29355646	      8.04399111	      2.74540081	     -8.64058070
      6.45500000	     -9.53019867	     -5.19558808	      8.89731756	     -1.08938146	     -0.03098951	     -0.28234192	     33.86417994	      1.23712062	     -4.03303522	    -16.49643027	     -8.21150947	      5.45444209	     15.40757667	     -5.22656132	     -5.98070516	     13.02930815	    -23.77093658	     -2.95887088	      8.32269797	     24.36321555	      8.30178551	      3.25156567	     -8.51301719
      6.46000000	     -9.54252624	     -5.59744598	      8.69876577	     -1.08248223	     -0.03090064	     -0.28124209	     34.03520866	      1.92282089	     -3.46282028	    -17.43781978	     -8.38112436	      5.02610062	     14.98360524	     -4.91218251	     -6.57177438	     12.12526314	    -24.82763339	     -4.02251992	      9.52794223	     24.91509775	      8.53385208	      3.69938919	     -8.36859272
      6.46500000	     -9.50130445	     -5.99646576	      8.52888898	     -1.07549978	     -0.03067879	     -0.28005549	     34.09583931	      2.67120364	     -2.67269581	    -18.36748050	     -8.23657012	      4.23945243	     13.26797316	     -4.67288199	     -7.18903431	     11.29918678	    -25.72485480	     -5.78405331	     10.16272191	     26.82628440	      8.71809252	      4.13078452	     -8.27352874
      6.47000000	     -9.45564145	     -6.36842304	      8.34823928	     -1.06851465	     -0.03046768	     -0.27894728	     34.12862537	      3.37009186	     -2.05200696	    -19.25361602	     -8.01814749	      3.73823950	     12.10214893	     -4.38483816	     -7.78764823	     10.42407609	    -26.76826854	     -7.31891073	     11.11406094	     27.94196419	      8.89186503	      4.54697384	     -8.17287744
      6.47500000	     -9.40956227	     -6.69436218	      8.21924511	     -1.06158300	     -0.03022351	     -0.27789596	     34.09194379	      4.01376830	     -1.38127080	    -20.01034619	     -7.96149369	      3.04073679	     11.41863504	     -4.04776243	     -8.33557246	      9.69353178	    -27.89574499	     -8.83337509	     12.08709138	     28.61575853	      9.05257944	      4.90035639	     -8.16425752
      6.48000000	     -9.32567961	     -6.98856035	      8.07708143	     -1.05461785	     -0.02992547	     -0.27684263	     33.97019012	      4.63623837	     -0.82491463	    -20.70219084	     -7.77683460	      2.43003745	     10.72031228	     -3.74492001	     -8.86585719	      8.95709147	    -29.00950941	    -10.53668365	     12.94097651	     29.43334964	      9.16849598	      5.23065137	     -8.11848680
      6.48500000	     -9.23731967	     -7.25735736	      7.94651314	     -1.04761896	     -0.02960414	     -0.27583991	     33.78348103	      5.22238663	     -0.36210180	    -21.29746744	     -7.51046075	      1.87578720	     10.14320026	     -3.43234322	     -9.36517493	      8.29622172	    -30.13317022	    -12.32728162	     13.64785146	     30.13466818	      9.28694041	      5.53274035	     -8.08463707
      6.49000000	     -9.16199016	     -7.50605675	      7.83174310	     -1.04061996	     -0.02928293	     -0.27491069	     33.55008660	      5.76774331	      0.01701389	    -21.78072636	     -7.24029913	      1.34577887	      9.82872965	     -3.07529378	     -9.82831069	      7.72987854	    -31.30439939	    -14.11387910	     14.22236369	     30.51256730	      9.42193179	      5.81944230	     -8.06523671
      6.49500000	     -9.09239520	     -7.74086469	      7.74893263	     -1.03375002	     -0.02892318	     -0.27405072	     33.27015377	      6.27160836	      0.33442291	    -22.15169459	     -7.01574885	      0.84481056	      9.68011515	     -2.65701211	    -10.25287781	      7.29403325	    -32.53615606	    -15.91432388	     14.57131999	     30.65603733	      9.54009177	      6.08063084	     -8.08147454
      6.50000000	     -9.00506589	     -7.90925500	      7.73054126	     -1.02703778	     -0.02858952	     -0.27330122	     32.92791543	      6.67014070	      0.58633241	    -22.45287092	     -6.66562848	      0.38535985	      9.72175072	     -2.19042604	    -10.59585563	      6.95194464	    -33.84802518	    -17.61712884	     14.79260995	     30.56522228	      9.61327010	      6.27295909	     -8.17008930
      6.50500000	     -8.97417694	     -8.06466358	      7.65381504	     -1.02036268	     -0.02825138	     -0.27230745	     32.59148434	      7.10897455	      0.94930074	    -22.63990769	     -6.50404412	     -0.31552122	      9.73668006	     -1.66942553	    -10.91834713	      6.67998093	    -35.10766036	    -19.44796194	     14.94151058	     30.79822805	      9.73222204	      6.42152958	     -8.18212860
      6.51000000	     -8.90757377	     -8.25015033	      7.65223954	     -1.01378164	     -0.02790077	     -0.27158493	     32.18476059	      7.49226379	      1.08073231	    -22.75679899	     -6.14095652	     -0.68678630	      9.89546268	     -1.10274483	    -11.24156120	      6.49597482	    -36.47847546	    -21.06749949	     14.81482974	     30.51954214	      9.81285080	      6.61902013	     -8.27156940
      6.51500000	     -8.87443504	     -8.41453470	      7.65858343	     -1.00733092	     -0.02755708	     -0.27082166	     31.78037605	      7.85299603	      1.23597136	    -22.80012702	     -5.85051385	     -1.17495673	     10.05675055	     -0.45410151	    -11.51939490	      6.38887198	    -37.87713718	    -22.64600762	     14.52493932	     30.22954167	      9.91139582	      6.78384329	     -8.35940371
      6.52000000	     -8.96354394	     -8.54529432	      7.65255415	     -1.00107985	     -0.02732459	     -0.26995763	     31.48706027	      8.17263133	      1.47498514	    -22.77051511	     -5.84286817	     -1.85441415	     10.72694347	      0.37789634	    -11.72544924	      6.36095235	    -39.29904129	    -24.23873092	     14.06691882	     30.24349220	     10.10280186	      6.87440601	     -8.45193219
      6.52500000	     -8.89278326	     -8.76232546	      7.69429303	     -0.99478840	     -0.02692361	     -0.26925072	     30.99619501	      8.54697152	      1.47065594	    -22.68804958	     -5.50825404	     -2.20264755	     10.93167149	      1.08227728	    -12.03339725	      6.33241541	    -40.75680704	    -25.57327872	     13.47795983	     29.84017909	     10.14919155	      7.09436827	     -8.53083243
